<svg xmlns="http://www.w3.org/2000/svg" width="48" height="41" fill="none"><path fill="#fff" fill-rule="evenodd" d="M44.403 11.265c.334.194.707.442 1.054.744.76.661 1.267 1.367 1.432 1.647l.003.005.022.038.004.007c.174.293.566.952.711 1.811.117.69.256 2.47.269 2.638l.003.04v.011c.091 1.326.08 2.018.07 2.52v.004a6.425 6.425 0 0 1-.002.13V20.881c-.01.491-.1.977-.264 1.44-.468 1.322-1.32 2.42-2.503 3.255l-.003.002-.002.002a10.169 10.169 0 0 1-2.707 1.339h-.003a8.63 8.63 0 0 1-1.39.296 1.303 1.303 0 0 0-.007.024l-.01.043-.011.04-.002.007-.01.034-.001.006a16.712 16.712 0 0 1-1.35 3.328c-.57 1.07-1.339 2.136-1.916 2.909-.237.318-.673.779-1.061 1.168-.393.394-.824.8-1.082 1.007a96.61 96.61 0 0 0-.345.281l-.07.057c-.296.243-.606.497-.909.716a18.338 18.338 0 0 1-1.606 1.05c-1.023.576-4.471 2.138-7.955 2.138-.916 0-1.694-.038-2.436-.123-2.897-.33-4.877-1.161-5.633-1.525-5.521-2.658-7.895-7.276-8.332-8.213l-.003-.005-.002-.005a24.21 24.21 0 0 1-.383-.83c-2.014-.086-2.92-.47-3.338-.663-2.19-.893-3.275-2.32-3.793-3.405a5.672 5.672 0 0 1-.565-2.182 62.228 62.228 0 0 1-.22-3.083c-.02-.425-.03-.793-.032-1.084-.002-.26.002-.533.03-.716.101-.687.368-1.405.75-2.128.607-1.151 1.44-1.79 1.761-2.037l.002-.001.034-.027.003-.002.031-.024.063-.05c.24-.844.363-1.212.521-1.615C4.39 9.322 6.466 6.746 9.344 4.64c.78-.57 2.03-1.4 3.557-2.107l.036-.017.003-.002c.705-.34 2.313-.98 2.997-1.21 1.418-.477 2.787-.74 3.902-.928a24.698 24.698 0 0 1 4.465-.378c1.678 0 3.005.077 4.151.25 1.771.264 3.51.706 5.187 1.318 2.02.737 3.85 1.713 5.438 2.908a17.37 17.37 0 0 1 3.345 3.293c.775 1.007 1.286 1.862 1.735 2.914.098.23.179.426.243.583Z" clip-rule="evenodd"/><path fill="#1B1C20" d="M45.89 18.303s-.145-1.857-.248-2.467c-.091-.536-.366-.975-.5-1.203a5.821 5.821 0 0 0-1.026-1.16 5.571 5.571 0 0 0-1.222-.774.185.185 0 0 1-.115-.106l-.09-.206s-.137-.357-.39-.952c-.33-.775-.73-1.506-1.488-2.492-1.428-1.86-3.85-4.068-7.878-5.539a24.268 24.268 0 0 0-4.788-1.216c-1.117-.169-2.396-.226-3.844-.226-1.113 0-2.314.04-4.118.347-1.099.187-2.334.428-3.59.85-.632.213-2.156.822-2.764 1.116-.162.078-1.593.702-3.278 1.935-2.01 1.47-4.22 3.655-5.452 6.795-.142.36-.256.694-.572 1.832-.063.227-.39.473-.674.694-.217.169-.83.61-1.26 1.426-.205.387-.468.966-.55 1.514-.027.183-.003 1.954.242 4.488 0 0-.039 2.616 3.15 3.902.173.07 1.034.585 3.949.51 0 0 .117.553.797 1.96.076.157 2.115 4.742 7.4 7.286.294.141 2.118 1.01 4.976 1.336.69.078 1.39.11 2.202.11 3.184 0 6.201-1.456 6.947-1.875 0 0 .6-.338 1.412-.926.366-.266.78-.619 1.244-.992.367-.295 1.484-1.397 1.797-1.817.526-.706 1.248-1.7 1.759-2.66.504-.94.905-1.928 1.196-2.95 0 0 .171-.655.265-1.066.065-.284.06-.35.273-.379.118-.016.294-.036.4-.046 0 0 1.084-.065 1.808-.295a8.092 8.092 0 0 0 2.159-1.068c.811-.572 1.435-1.33 1.78-2.306.096-.269.148-.55.155-.834.008-.5.034-1.132-.065-2.546Zm-5.765-6.235c-.05.004-.227-.041-.492-.043-.798-.005-1.696.215-1.764.23-.8.17-.877.276-.898.297-.02.02-.013.02-.063.03-.05.01-.117-.093-.202-.21-1.054-1.442-2.474-2.681-2.683-2.865-1.855-1.638-4.34-2.617-4.558-2.697-2.636-.975-5.965-.965-6.226-.952-2.803.137-5.756 1.345-6.967 2.037-1.212.693-2.618 1.97-2.618 1.97-2.267 2.081-2.963 3.68-3.298 4.187-.072.11-.035.108-.156.1-.082-.006-.511-.067-.93-.106-.42-.04-.828-.05-.913-.05-1.046.003-1.163.111-1.21.133-.119.053-.037-.199-.02-.25.633-1.92 1.853-3.485 1.952-3.602 1.819-2.164 3.53-3.232 3.621-3.292 1.918-1.284 4.044-2.031 4.2-2.087 1.82-.643 3.587-.923 3.752-.955 1.376-.272 3.615-.312 3.726-.312.979 0 1.84.06 2.443.12.522.05 1.435.181 1.743.244.965.199 2.044.51 2.134.538 2.477.763 3.972 1.682 4.081 1.752.249.16 1.214.757 1.745 1.196a17.192 17.192 0 0 1 1.819 1.75c.287.35.515.598.719.893.783 1.134 1.096 1.857 1.096 1.857.039.084.017.083-.033.087Z"/><path fill="#fff" d="M37.264 21.977c0 7.498-5.694 13.576-13.15 13.576-7.013 0-13.149-6.078-13.149-13.576 0-5.052 2.586-9.46 6.553-11.798 1.92-1.13 3.744-1.777 6.596-1.777 2.51 0 4.402.61 6.264 1.671 4.102 2.338 6.886 6.868 6.886 11.904Z"/><path fill="#E81623" d="M24.11 26.102c1.233.047 1.817.146 2.823.346 1.007.188 2.14.364 2.903.393.576.022 1.176-.092 2.325-.523.425-.159.96-.41 1.471-.681.457-.24.9-.506 1.327-.795.463-.312.866-.65.967-1.796 0 0 .113-1.212-.107-3.055a11.236 11.236 0 0 0-.404-1.98c-.202-.652-.39-1.317-.73-1.848a3.397 3.397 0 0 0-.864-.848c-.222-.146-.51-.261-.805-.354a18.69 18.69 0 0 0-2.175-.553c-1.114-.213-2.858-.375-3.898-.435-.439-.026-2.169-.052-5.996-.035l-.377.002c-.325.002-3.49.286-5.171.839-.201.067-1.28.34-1.775 1.111-.1.156-.975 1.619-1.382 4.719-.027.208-.222 1.978.134 3.126.117.377.213.523.618.864.091.077.524.401 1.127.751.658.38 1.699.874 2.6 1.17.137.044.726.263 1.621.232.865-.03 1.682-.206 2.577-.349.396-.063 1.101-.183 1.79-.27.64-.08 1.242-.037 1.4-.03Z"/><path fill="#1B1C20" d="M31.551 29.038s-.221-.663-.287-.744c-.025-.03-.062-.044-.093-.01a9.76 9.76 0 0 1-2.104 1.656c-.094.055-1.158.695-2.631 1.146-.106.033-.88.317-2.666.391-.033.002-.415.01-.838 0-.397-.01-.684-.052-1.125-.048-.037 0-.137 0-.128.053.032.143.078.282.137.416.129.27.183.38.34.43.066.02.244.053.678.08.101.006.608.038 1.251.038.118 0 1.85.042 2.615-.21.412-.114.818-.253 1.214-.414a8.684 8.684 0 0 0 2.32-1.386 14.875 14.875 0 0 0 1.318-1.267c.034-.037.012-.094 0-.131Z"/></svg>